<svg viewBox="0 0 1400 420" xmlns="http://www.w3.org/2000/svg" role="img" aria-labelledby="heroTitle heroDesc">
<title id="heroTitle">Policy network</title>
<desc id="heroDesc">Abstract illustration of a policy intelligence network: clusters of connected nodes on a navy background, with the Green Deal cluster highlighted in gold and other policy fields shown dimly as a hint of future coverage.</desc>
<rect x="0" y="0" width="1400" height="420" fill="#0B1F33"/>
<g opacity="0.06">
<circle cx="0" cy="0" r="1" fill="#8FA6B8"/>
<circle cx="0" cy="40" r="1" fill="#8FA6B8"/>
<circle cx="0" cy="80" r="1" fill="#8FA6B8"/>
<circle cx="0" cy="120" r="1" fill="#8FA6B8"/>
<circle cx="0" cy="160" r="1" fill="#8FA6B8"/>
<circle cx="0" cy="200" r="1" fill="#8FA6B8"/>
<circle cx="0" cy="240" r="1" fill="#8FA6B8"/>
<circle cx="0" cy="280" r="1" fill="#8FA6B8"/>
<circle cx="0" cy="320" r="1" fill="#8FA6B8"/>
<circle cx="0" cy="360" r="1" fill="#8FA6B8"/>
<circle cx="0" cy="400" r="1" fill="#8FA6B8"/>
<circle cx="40" cy="0" r="1" fill="#8FA6B8"/>
<circle cx="40" cy="40" r="1" fill="#8FA6B8"/>
<circle cx="40" cy="80" r="1" fill="#8FA6B8"/>
<circle cx="40" cy="120" r="1" fill="#8FA6B8"/>
<circle cx="40" cy="160" r="1" fill="#8FA6B8"/>
<circle cx="40" cy="200" r="1" fill="#8FA6B8"/>
<circle cx="40" cy="240" r="1" fill="#8FA6B8"/>
<circle cx="40" cy="280" r="1" fill="#8FA6B8"/>
<circle cx="40" cy="320" r="1" fill="#8FA6B8"/>
<circle cx="40" cy="360" r="1" fill="#8FA6B8"/>
<circle cx="40" cy="400" r="1" fill="#8FA6B8"/>
<circle cx="80" cy="0" r="1" fill="#8FA6B8"/>
<circle cx="80" cy="40" r="1" fill="#8FA6B8"/>
<circle cx="80" cy="80" r="1" fill="#8FA6B8"/>
<circle cx="80" cy="120" r="1" fill="#8FA6B8"/>
<circle cx="80" cy="160" r="1" fill="#8FA6B8"/>
<circle cx="80" cy="200" r="1" fill="#8FA6B8"/>
<circle cx="80" cy="240" r="1" fill="#8FA6B8"/>
<circle cx="80" cy="280" r="1" fill="#8FA6B8"/>
<circle cx="80" cy="320" r="1" fill="#8FA6B8"/>
<circle cx="80" cy="360" r="1" fill="#8FA6B8"/>
<circle cx="80" cy="400" r="1" fill="#8FA6B8"/>
<circle cx="120" cy="0" r="1" fill="#8FA6B8"/>
<circle cx="120" cy="40" r="1" fill="#8FA6B8"/>
<circle cx="120" cy="80" r="1" fill="#8FA6B8"/>
<circle cx="120" cy="120" r="1" fill="#8FA6B8"/>
<circle cx="120" cy="160" r="1" fill="#8FA6B8"/>
<circle cx="120" cy="200" r="1" fill="#8FA6B8"/>
<circle cx="120" cy="240" r="1" fill="#8FA6B8"/>
<circle cx="120" cy="280" r="1" fill="#8FA6B8"/>
<circle cx="120" cy="320" r="1" fill="#8FA6B8"/>
<circle cx="120" cy="360" r="1" fill="#8FA6B8"/>
<circle cx="120" cy="400" r="1" fill="#8FA6B8"/>
<circle cx="160" cy="0" r="1" fill="#8FA6B8"/>
<circle cx="160" cy="40" r="1" fill="#8FA6B8"/>
<circle cx="160" cy="80" r="1" fill="#8FA6B8"/>
<circle cx="160" cy="120" r="1" fill="#8FA6B8"/>
<circle cx="160" cy="160" r="1" fill="#8FA6B8"/>
<circle cx="160" cy="200" r="1" fill="#8FA6B8"/>
<circle cx="160" cy="240" r="1" fill="#8FA6B8"/>
<circle cx="160" cy="280" r="1" fill="#8FA6B8"/>
<circle cx="160" cy="320" r="1" fill="#8FA6B8"/>
<circle cx="160" cy="360" r="1" fill="#8FA6B8"/>
<circle cx="160" cy="400" r="1" fill="#8FA6B8"/>
<circle cx="200" cy="0" r="1" fill="#8FA6B8"/>
<circle cx="200" cy="40" r="1" fill="#8FA6B8"/>
<circle cx="200" cy="80" r="1" fill="#8FA6B8"/>
<circle cx="200" cy="120" r="1" fill="#8FA6B8"/>
<circle cx="200" cy="160" r="1" fill="#8FA6B8"/>
<circle cx="200" cy="200" r="1" fill="#8FA6B8"/>
<circle cx="200" cy="240" r="1" fill="#8FA6B8"/>
<circle cx="200" cy="280" r="1" fill="#8FA6B8"/>
<circle cx="200" cy="320" r="1" fill="#8FA6B8"/>
<circle cx="200" cy="360" r="1" fill="#8FA6B8"/>
<circle cx="200" cy="400" r="1" fill="#8FA6B8"/>
<circle cx="240" cy="0" r="1" fill="#8FA6B8"/>
<circle cx="240" cy="40" r="1" fill="#8FA6B8"/>
<circle cx="240" cy="80" r="1" fill="#8FA6B8"/>
<circle cx="240" cy="120" r="1" fill="#8FA6B8"/>
<circle cx="240" cy="160" r="1" fill="#8FA6B8"/>
<circle cx="240" cy="200" r="1" fill="#8FA6B8"/>
<circle cx="240" cy="240" r="1" fill="#8FA6B8"/>
<circle cx="240" cy="280" r="1" fill="#8FA6B8"/>
<circle cx="240" cy="320" r="1" fill="#8FA6B8"/>
<circle cx="240" cy="360" r="1" fill="#8FA6B8"/>
<circle cx="240" cy="400" r="1" fill="#8FA6B8"/>
<circle cx="280" cy="0" r="1" fill="#8FA6B8"/>
<circle cx="280" cy="40" r="1" fill="#8FA6B8"/>
<circle cx="280" cy="80" r="1" fill="#8FA6B8"/>
<circle cx="280" cy="120" r="1" fill="#8FA6B8"/>
<circle cx="280" cy="160" r="1" fill="#8FA6B8"/>
<circle cx="280" cy="200" r="1" fill="#8FA6B8"/>
<circle cx="280" cy="240" r="1" fill="#8FA6B8"/>
<circle cx="280" cy="280" r="1" fill="#8FA6B8"/>
<circle cx="280" cy="320" r="1" fill="#8FA6B8"/>
<circle cx="280" cy="360" r="1" fill="#8FA6B8"/>
<circle cx="280" cy="400" r="1" fill="#8FA6B8"/>
<circle cx="320" cy="0" r="1" fill="#8FA6B8"/>
<circle cx="320" cy="40" r="1" fill="#8FA6B8"/>
<circle cx="320" cy="80" r="1" fill="#8FA6B8"/>
<circle cx="320" cy="120" r="1" fill="#8FA6B8"/>
<circle cx="320" cy="160" r="1" fill="#8FA6B8"/>
<circle cx="320" cy="200" r="1" fill="#8FA6B8"/>
<circle cx="320" cy="240" r="1" fill="#8FA6B8"/>
<circle cx="320" cy="280" r="1" fill="#8FA6B8"/>
<circle cx="320" cy="320" r="1" fill="#8FA6B8"/>
<circle cx="320" cy="360" r="1" fill="#8FA6B8"/>
<circle cx="320" cy="400" r="1" fill="#8FA6B8"/>
<circle cx="360" cy="0" r="1" fill="#8FA6B8"/>
<circle cx="360" cy="40" r="1" fill="#8FA6B8"/>
<circle cx="360" cy="80" r="1" fill="#8FA6B8"/>
<circle cx="360" cy="120" r="1" fill="#8FA6B8"/>
<circle cx="360" cy="160" r="1" fill="#8FA6B8"/>
<circle cx="360" cy="200" r="1" fill="#8FA6B8"/>
<circle cx="360" cy="240" r="1" fill="#8FA6B8"/>
<circle cx="360" cy="280" r="1" fill="#8FA6B8"/>
<circle cx="360" cy="320" r="1" fill="#8FA6B8"/>
<circle cx="360" cy="360" r="1" fill="#8FA6B8"/>
<circle cx="360" cy="400" r="1" fill="#8FA6B8"/>
<circle cx="400" cy="0" r="1" fill="#8FA6B8"/>
<circle cx="400" cy="40" r="1" fill="#8FA6B8"/>
<circle cx="400" cy="80" r="1" fill="#8FA6B8"/>
<circle cx="400" cy="120" r="1" fill="#8FA6B8"/>
<circle cx="400" cy="160" r="1" fill="#8FA6B8"/>
<circle cx="400" cy="200" r="1" fill="#8FA6B8"/>
<circle cx="400" cy="240" r="1" fill="#8FA6B8"/>
<circle cx="400" cy="280" r="1" fill="#8FA6B8"/>
<circle cx="400" cy="320" r="1" fill="#8FA6B8"/>
<circle cx="400" cy="360" r="1" fill="#8FA6B8"/>
<circle cx="400" cy="400" r="1" fill="#8FA6B8"/>
<circle cx="440" cy="0" r="1" fill="#8FA6B8"/>
<circle cx="440" cy="40" r="1" fill="#8FA6B8"/>
<circle cx="440" cy="80" r="1" fill="#8FA6B8"/>
<circle cx="440" cy="120" r="1" fill="#8FA6B8"/>
<circle cx="440" cy="160" r="1" fill="#8FA6B8"/>
<circle cx="440" cy="200" r="1" fill="#8FA6B8"/>
<circle cx="440" cy="240" r="1" fill="#8FA6B8"/>
<circle cx="440" cy="280" r="1" fill="#8FA6B8"/>
<circle cx="440" cy="320" r="1" fill="#8FA6B8"/>
<circle cx="440" cy="360" r="1" fill="#8FA6B8"/>
<circle cx="440" cy="400" r="1" fill="#8FA6B8"/>
<circle cx="480" cy="0" r="1" fill="#8FA6B8"/>
<circle cx="480" cy="40" r="1" fill="#8FA6B8"/>
<circle cx="480" cy="80" r="1" fill="#8FA6B8"/>
<circle cx="480" cy="120" r="1" fill="#8FA6B8"/>
<circle cx="480" cy="160" r="1" fill="#8FA6B8"/>
<circle cx="480" cy="200" r="1" fill="#8FA6B8"/>
<circle cx="480" cy="240" r="1" fill="#8FA6B8"/>
<circle cx="480" cy="280" r="1" fill="#8FA6B8"/>
<circle cx="480" cy="320" r="1" fill="#8FA6B8"/>
<circle cx="480" cy="360" r="1" fill="#8FA6B8"/>
<circle cx="480" cy="400" r="1" fill="#8FA6B8"/>
<circle cx="520" cy="0" r="1" fill="#8FA6B8"/>
<circle cx="520" cy="40" r="1" fill="#8FA6B8"/>
<circle cx="520" cy="80" r="1" fill="#8FA6B8"/>
<circle cx="520" cy="120" r="1" fill="#8FA6B8"/>
<circle cx="520" cy="160" r="1" fill="#8FA6B8"/>
<circle cx="520" cy="200" r="1" fill="#8FA6B8"/>
<circle cx="520" cy="240" r="1" fill="#8FA6B8"/>
<circle cx="520" cy="280" r="1" fill="#8FA6B8"/>
<circle cx="520" cy="320" r="1" fill="#8FA6B8"/>
<circle cx="520" cy="360" r="1" fill="#8FA6B8"/>
<circle cx="520" cy="400" r="1" fill="#8FA6B8"/>
<circle cx="560" cy="0" r="1" fill="#8FA6B8"/>
<circle cx="560" cy="40" r="1" fill="#8FA6B8"/>
<circle cx="560" cy="80" r="1" fill="#8FA6B8"/>
<circle cx="560" cy="120" r="1" fill="#8FA6B8"/>
<circle cx="560" cy="160" r="1" fill="#8FA6B8"/>
<circle cx="560" cy="200" r="1" fill="#8FA6B8"/>
<circle cx="560" cy="240" r="1" fill="#8FA6B8"/>
<circle cx="560" cy="280" r="1" fill="#8FA6B8"/>
<circle cx="560" cy="320" r="1" fill="#8FA6B8"/>
<circle cx="560" cy="360" r="1" fill="#8FA6B8"/>
<circle cx="560" cy="400" r="1" fill="#8FA6B8"/>
<circle cx="600" cy="0" r="1" fill="#8FA6B8"/>
<circle cx="600" cy="40" r="1" fill="#8FA6B8"/>
<circle cx="600" cy="80" r="1" fill="#8FA6B8"/>
<circle cx="600" cy="120" r="1" fill="#8FA6B8"/>
<circle cx="600" cy="160" r="1" fill="#8FA6B8"/>
<circle cx="600" cy="200" r="1" fill="#8FA6B8"/>
<circle cx="600" cy="240" r="1" fill="#8FA6B8"/>
<circle cx="600" cy="280" r="1" fill="#8FA6B8"/>
<circle cx="600" cy="320" r="1" fill="#8FA6B8"/>
<circle cx="600" cy="360" r="1" fill="#8FA6B8"/>
<circle cx="600" cy="400" r="1" fill="#8FA6B8"/>
<circle cx="640" cy="0" r="1" fill="#8FA6B8"/>
<circle cx="640" cy="40" r="1" fill="#8FA6B8"/>
<circle cx="640" cy="80" r="1" fill="#8FA6B8"/>
<circle cx="640" cy="120" r="1" fill="#8FA6B8"/>
<circle cx="640" cy="160" r="1" fill="#8FA6B8"/>
<circle cx="640" cy="200" r="1" fill="#8FA6B8"/>
<circle cx="640" cy="240" r="1" fill="#8FA6B8"/>
<circle cx="640" cy="280" r="1" fill="#8FA6B8"/>
<circle cx="640" cy="320" r="1" fill="#8FA6B8"/>
<circle cx="640" cy="360" r="1" fill="#8FA6B8"/>
<circle cx="640" cy="400" r="1" fill="#8FA6B8"/>
<circle cx="680" cy="0" r="1" fill="#8FA6B8"/>
<circle cx="680" cy="40" r="1" fill="#8FA6B8"/>
<circle cx="680" cy="80" r="1" fill="#8FA6B8"/>
<circle cx="680" cy="120" r="1" fill="#8FA6B8"/>
<circle cx="680" cy="160" r="1" fill="#8FA6B8"/>
<circle cx="680" cy="200" r="1" fill="#8FA6B8"/>
<circle cx="680" cy="240" r="1" fill="#8FA6B8"/>
<circle cx="680" cy="280" r="1" fill="#8FA6B8"/>
<circle cx="680" cy="320" r="1" fill="#8FA6B8"/>
<circle cx="680" cy="360" r="1" fill="#8FA6B8"/>
<circle cx="680" cy="400" r="1" fill="#8FA6B8"/>
<circle cx="720" cy="0" r="1" fill="#8FA6B8"/>
<circle cx="720" cy="40" r="1" fill="#8FA6B8"/>
<circle cx="720" cy="80" r="1" fill="#8FA6B8"/>
<circle cx="720" cy="120" r="1" fill="#8FA6B8"/>
<circle cx="720" cy="160" r="1" fill="#8FA6B8"/>
<circle cx="720" cy="200" r="1" fill="#8FA6B8"/>
<circle cx="720" cy="240" r="1" fill="#8FA6B8"/>
<circle cx="720" cy="280" r="1" fill="#8FA6B8"/>
<circle cx="720" cy="320" r="1" fill="#8FA6B8"/>
<circle cx="720" cy="360" r="1" fill="#8FA6B8"/>
<circle cx="720" cy="400" r="1" fill="#8FA6B8"/>
<circle cx="760" cy="0" r="1" fill="#8FA6B8"/>
<circle cx="760" cy="40" r="1" fill="#8FA6B8"/>
<circle cx="760" cy="80" r="1" fill="#8FA6B8"/>
<circle cx="760" cy="120" r="1" fill="#8FA6B8"/>
<circle cx="760" cy="160" r="1" fill="#8FA6B8"/>
<circle cx="760" cy="200" r="1" fill="#8FA6B8"/>
<circle cx="760" cy="240" r="1" fill="#8FA6B8"/>
<circle cx="760" cy="280" r="1" fill="#8FA6B8"/>
<circle cx="760" cy="320" r="1" fill="#8FA6B8"/>
<circle cx="760" cy="360" r="1" fill="#8FA6B8"/>
<circle cx="760" cy="400" r="1" fill="#8FA6B8"/>
<circle cx="800" cy="0" r="1" fill="#8FA6B8"/>
<circle cx="800" cy="40" r="1" fill="#8FA6B8"/>
<circle cx="800" cy="80" r="1" fill="#8FA6B8"/>
<circle cx="800" cy="120" r="1" fill="#8FA6B8"/>
<circle cx="800" cy="160" r="1" fill="#8FA6B8"/>
<circle cx="800" cy="200" r="1" fill="#8FA6B8"/>
<circle cx="800" cy="240" r="1" fill="#8FA6B8"/>
<circle cx="800" cy="280" r="1" fill="#8FA6B8"/>
<circle cx="800" cy="320" r="1" fill="#8FA6B8"/>
<circle cx="800" cy="360" r="1" fill="#8FA6B8"/>
<circle cx="800" cy="400" r="1" fill="#8FA6B8"/>
<circle cx="840" cy="0" r="1" fill="#8FA6B8"/>
<circle cx="840" cy="40" r="1" fill="#8FA6B8"/>
<circle cx="840" cy="80" r="1" fill="#8FA6B8"/>
<circle cx="840" cy="120" r="1" fill="#8FA6B8"/>
<circle cx="840" cy="160" r="1" fill="#8FA6B8"/>
<circle cx="840" cy="200" r="1" fill="#8FA6B8"/>
<circle cx="840" cy="240" r="1" fill="#8FA6B8"/>
<circle cx="840" cy="280" r="1" fill="#8FA6B8"/>
<circle cx="840" cy="320" r="1" fill="#8FA6B8"/>
<circle cx="840" cy="360" r="1" fill="#8FA6B8"/>
<circle cx="840" cy="400" r="1" fill="#8FA6B8"/>
<circle cx="880" cy="0" r="1" fill="#8FA6B8"/>
<circle cx="880" cy="40" r="1" fill="#8FA6B8"/>
<circle cx="880" cy="80" r="1" fill="#8FA6B8"/>
<circle cx="880" cy="120" r="1" fill="#8FA6B8"/>
<circle cx="880" cy="160" r="1" fill="#8FA6B8"/>
<circle cx="880" cy="200" r="1" fill="#8FA6B8"/>
<circle cx="880" cy="240" r="1" fill="#8FA6B8"/>
<circle cx="880" cy="280" r="1" fill="#8FA6B8"/>
<circle cx="880" cy="320" r="1" fill="#8FA6B8"/>
<circle cx="880" cy="360" r="1" fill="#8FA6B8"/>
<circle cx="880" cy="400" r="1" fill="#8FA6B8"/>
<circle cx="920" cy="0" r="1" fill="#8FA6B8"/>
<circle cx="920" cy="40" r="1" fill="#8FA6B8"/>
<circle cx="920" cy="80" r="1" fill="#8FA6B8"/>
<circle cx="920" cy="120" r="1" fill="#8FA6B8"/>
<circle cx="920" cy="160" r="1" fill="#8FA6B8"/>
<circle cx="920" cy="200" r="1" fill="#8FA6B8"/>
<circle cx="920" cy="240" r="1" fill="#8FA6B8"/>
<circle cx="920" cy="280" r="1" fill="#8FA6B8"/>
<circle cx="920" cy="320" r="1" fill="#8FA6B8"/>
<circle cx="920" cy="360" r="1" fill="#8FA6B8"/>
<circle cx="920" cy="400" r="1" fill="#8FA6B8"/>
<circle cx="960" cy="0" r="1" fill="#8FA6B8"/>
<circle cx="960" cy="40" r="1" fill="#8FA6B8"/>
<circle cx="960" cy="80" r="1" fill="#8FA6B8"/>
<circle cx="960" cy="120" r="1" fill="#8FA6B8"/>
<circle cx="960" cy="160" r="1" fill="#8FA6B8"/>
<circle cx="960" cy="200" r="1" fill="#8FA6B8"/>
<circle cx="960" cy="240" r="1" fill="#8FA6B8"/>
<circle cx="960" cy="280" r="1" fill="#8FA6B8"/>
<circle cx="960" cy="320" r="1" fill="#8FA6B8"/>
<circle cx="960" cy="360" r="1" fill="#8FA6B8"/>
<circle cx="960" cy="400" r="1" fill="#8FA6B8"/>
<circle cx="1000" cy="0" r="1" fill="#8FA6B8"/>
<circle cx="1000" cy="40" r="1" fill="#8FA6B8"/>
<circle cx="1000" cy="80" r="1" fill="#8FA6B8"/>
<circle cx="1000" cy="120" r="1" fill="#8FA6B8"/>
<circle cx="1000" cy="160" r="1" fill="#8FA6B8"/>
<circle cx="1000" cy="200" r="1" fill="#8FA6B8"/>
<circle cx="1000" cy="240" r="1" fill="#8FA6B8"/>
<circle cx="1000" cy="280" r="1" fill="#8FA6B8"/>
<circle cx="1000" cy="320" r="1" fill="#8FA6B8"/>
<circle cx="1000" cy="360" r="1" fill="#8FA6B8"/>
<circle cx="1000" cy="400" r="1" fill="#8FA6B8"/>
<circle cx="1040" cy="0" r="1" fill="#8FA6B8"/>
<circle cx="1040" cy="40" r="1" fill="#8FA6B8"/>
<circle cx="1040" cy="80" r="1" fill="#8FA6B8"/>
<circle cx="1040" cy="120" r="1" fill="#8FA6B8"/>
<circle cx="1040" cy="160" r="1" fill="#8FA6B8"/>
<circle cx="1040" cy="200" r="1" fill="#8FA6B8"/>
<circle cx="1040" cy="240" r="1" fill="#8FA6B8"/>
<circle cx="1040" cy="280" r="1" fill="#8FA6B8"/>
<circle cx="1040" cy="320" r="1" fill="#8FA6B8"/>
<circle cx="1040" cy="360" r="1" fill="#8FA6B8"/>
<circle cx="1040" cy="400" r="1" fill="#8FA6B8"/>
<circle cx="1080" cy="0" r="1" fill="#8FA6B8"/>
<circle cx="1080" cy="40" r="1" fill="#8FA6B8"/>
<circle cx="1080" cy="80" r="1" fill="#8FA6B8"/>
<circle cx="1080" cy="120" r="1" fill="#8FA6B8"/>
<circle cx="1080" cy="160" r="1" fill="#8FA6B8"/>
<circle cx="1080" cy="200" r="1" fill="#8FA6B8"/>
<circle cx="1080" cy="240" r="1" fill="#8FA6B8"/>
<circle cx="1080" cy="280" r="1" fill="#8FA6B8"/>
<circle cx="1080" cy="320" r="1" fill="#8FA6B8"/>
<circle cx="1080" cy="360" r="1" fill="#8FA6B8"/>
<circle cx="1080" cy="400" r="1" fill="#8FA6B8"/>
<circle cx="1120" cy="0" r="1" fill="#8FA6B8"/>
<circle cx="1120" cy="40" r="1" fill="#8FA6B8"/>
<circle cx="1120" cy="80" r="1" fill="#8FA6B8"/>
<circle cx="1120" cy="120" r="1" fill="#8FA6B8"/>
<circle cx="1120" cy="160" r="1" fill="#8FA6B8"/>
<circle cx="1120" cy="200" r="1" fill="#8FA6B8"/>
<circle cx="1120" cy="240" r="1" fill="#8FA6B8"/>
<circle cx="1120" cy="280" r="1" fill="#8FA6B8"/>
<circle cx="1120" cy="320" r="1" fill="#8FA6B8"/>
<circle cx="1120" cy="360" r="1" fill="#8FA6B8"/>
<circle cx="1120" cy="400" r="1" fill="#8FA6B8"/>
<circle cx="1160" cy="0" r="1" fill="#8FA6B8"/>
<circle cx="1160" cy="40" r="1" fill="#8FA6B8"/>
<circle cx="1160" cy="80" r="1" fill="#8FA6B8"/>
<circle cx="1160" cy="120" r="1" fill="#8FA6B8"/>
<circle cx="1160" cy="160" r="1" fill="#8FA6B8"/>
<circle cx="1160" cy="200" r="1" fill="#8FA6B8"/>
<circle cx="1160" cy="240" r="1" fill="#8FA6B8"/>
<circle cx="1160" cy="280" r="1" fill="#8FA6B8"/>
<circle cx="1160" cy="320" r="1" fill="#8FA6B8"/>
<circle cx="1160" cy="360" r="1" fill="#8FA6B8"/>
<circle cx="1160" cy="400" r="1" fill="#8FA6B8"/>
<circle cx="1200" cy="0" r="1" fill="#8FA6B8"/>
<circle cx="1200" cy="40" r="1" fill="#8FA6B8"/>
<circle cx="1200" cy="80" r="1" fill="#8FA6B8"/>
<circle cx="1200" cy="120" r="1" fill="#8FA6B8"/>
<circle cx="1200" cy="160" r="1" fill="#8FA6B8"/>
<circle cx="1200" cy="200" r="1" fill="#8FA6B8"/>
<circle cx="1200" cy="240" r="1" fill="#8FA6B8"/>
<circle cx="1200" cy="280" r="1" fill="#8FA6B8"/>
<circle cx="1200" cy="320" r="1" fill="#8FA6B8"/>
<circle cx="1200" cy="360" r="1" fill="#8FA6B8"/>
<circle cx="1200" cy="400" r="1" fill="#8FA6B8"/>
<circle cx="1240" cy="0" r="1" fill="#8FA6B8"/>
<circle cx="1240" cy="40" r="1" fill="#8FA6B8"/>
<circle cx="1240" cy="80" r="1" fill="#8FA6B8"/>
<circle cx="1240" cy="120" r="1" fill="#8FA6B8"/>
<circle cx="1240" cy="160" r="1" fill="#8FA6B8"/>
<circle cx="1240" cy="200" r="1" fill="#8FA6B8"/>
<circle cx="1240" cy="240" r="1" fill="#8FA6B8"/>
<circle cx="1240" cy="280" r="1" fill="#8FA6B8"/>
<circle cx="1240" cy="320" r="1" fill="#8FA6B8"/>
<circle cx="1240" cy="360" r="1" fill="#8FA6B8"/>
<circle cx="1240" cy="400" r="1" fill="#8FA6B8"/>
<circle cx="1280" cy="0" r="1" fill="#8FA6B8"/>
<circle cx="1280" cy="40" r="1" fill="#8FA6B8"/>
<circle cx="1280" cy="80" r="1" fill="#8FA6B8"/>
<circle cx="1280" cy="120" r="1" fill="#8FA6B8"/>
<circle cx="1280" cy="160" r="1" fill="#8FA6B8"/>
<circle cx="1280" cy="200" r="1" fill="#8FA6B8"/>
<circle cx="1280" cy="240" r="1" fill="#8FA6B8"/>
<circle cx="1280" cy="280" r="1" fill="#8FA6B8"/>
<circle cx="1280" cy="320" r="1" fill="#8FA6B8"/>
<circle cx="1280" cy="360" r="1" fill="#8FA6B8"/>
<circle cx="1280" cy="400" r="1" fill="#8FA6B8"/>
<circle cx="1320" cy="0" r="1" fill="#8FA6B8"/>
<circle cx="1320" cy="40" r="1" fill="#8FA6B8"/>
<circle cx="1320" cy="80" r="1" fill="#8FA6B8"/>
<circle cx="1320" cy="120" r="1" fill="#8FA6B8"/>
<circle cx="1320" cy="160" r="1" fill="#8FA6B8"/>
<circle cx="1320" cy="200" r="1" fill="#8FA6B8"/>
<circle cx="1320" cy="240" r="1" fill="#8FA6B8"/>
<circle cx="1320" cy="280" r="1" fill="#8FA6B8"/>
<circle cx="1320" cy="320" r="1" fill="#8FA6B8"/>
<circle cx="1320" cy="360" r="1" fill="#8FA6B8"/>
<circle cx="1320" cy="400" r="1" fill="#8FA6B8"/>
<circle cx="1360" cy="0" r="1" fill="#8FA6B8"/>
<circle cx="1360" cy="40" r="1" fill="#8FA6B8"/>
<circle cx="1360" cy="80" r="1" fill="#8FA6B8"/>
<circle cx="1360" cy="120" r="1" fill="#8FA6B8"/>
<circle cx="1360" cy="160" r="1" fill="#8FA6B8"/>
<circle cx="1360" cy="200" r="1" fill="#8FA6B8"/>
<circle cx="1360" cy="240" r="1" fill="#8FA6B8"/>
<circle cx="1360" cy="280" r="1" fill="#8FA6B8"/>
<circle cx="1360" cy="320" r="1" fill="#8FA6B8"/>
<circle cx="1360" cy="360" r="1" fill="#8FA6B8"/>
<circle cx="1360" cy="400" r="1" fill="#8FA6B8"/>
</g>
<line x1="260" y1="190" x2="640" y2="260" stroke="#4C6478" stroke-width="1" opacity="0.15"/>
<line x1="640" y1="260" x2="980" y2="140" stroke="#4C6478" stroke-width="1" opacity="0.15"/>
<line x1="980" y1="140" x2="1250" y2="240" stroke="#4C6478" stroke-width="1" opacity="0.15"/>
<g stroke="#C9A227" stroke-width="1" opacity="0.55">
<line x1="246.3" y1="181.0" x2="291.6" y2="176.0"/>
<line x1="246.3" y1="181.0" x2="249.4" y2="226.7"/>
<line x1="249.4" y1="226.7" x2="282.1" y2="250.8"/>
<line x1="247.9" y1="111.8" x2="310.5" y2="114.1"/>
<line x1="247.9" y1="111.8" x2="189.9" y2="137.0"/>
<line x1="291.6" y1="176.0" x2="322.4" y2="195.8"/>
<line x1="282.1" y1="250.8" x2="322.4" y2="195.8"/>
<line x1="322.4" y1="195.8" x2="343.0" y2="177.4"/>
<line x1="246.3" y1="181.0" x2="189.9" y2="137.0"/>
<line x1="291.6" y1="176.0" x2="310.5" y2="114.1"/>
<line x1="291.6" y1="176.0" x2="343.0" y2="177.4"/>
</g>
<g fill="#C9A227" opacity="0.95">
<circle cx="246.3" cy="181.0" r="2.7"/>
<circle cx="249.4" cy="226.7" r="2.7"/>
<circle cx="247.9" cy="111.8" r="4.2"/>
<circle cx="291.6" cy="176.0" r="3.7"/>
<circle cx="282.1" cy="250.8" r="4.1"/>
<circle cx="322.4" cy="195.8" r="4.0"/>
<circle cx="189.9" cy="137.0" r="3.6"/>
<circle cx="310.5" cy="114.1" r="4.4"/>
<circle cx="343.0" cy="177.4" r="3.3"/>
</g>
<g stroke="#4C6478" stroke-width="1" opacity="0.28">
<line x1="470.8" y1="228.4" x2="508.8" y2="221.9"/>
<line x1="470.8" y1="228.4" x2="501.0" y2="189.6"/>
<line x1="501.0" y1="189.6" x2="508.8" y2="221.9"/>
<line x1="705.5" y1="270.7" x2="630.5" y2="280.7"/>
<line x1="705.5" y1="270.7" x2="616.4" y2="333.1"/>
<line x1="630.5" y1="280.7" x2="616.4" y2="333.1"/>
</g>
<g fill="#4C6478" opacity="0.5">
<circle cx="470.8" cy="228.4" r="2.3"/>
<circle cx="501.0" cy="189.6" r="2.3"/>
<circle cx="508.8" cy="221.9" r="2.1"/>
<circle cx="705.5" cy="270.7" r="2.2"/>
<circle cx="630.5" cy="280.7" r="3.1"/>
<circle cx="616.4" cy="333.1" r="2.7"/>
</g>
<g stroke="#4C6478" stroke-width="1" opacity="0.28">
<line x1="934.9" y1="119.7" x2="972.6" y2="109.1"/>
<line x1="934.9" y1="119.7" x2="902.7" y2="88.6"/>
<line x1="972.6" y1="109.1" x2="902.7" y2="88.6"/>
<line x1="771.6" y1="248.4" x2="902.7" y2="88.6"/>
<line x1="934.9" y1="119.7" x2="771.6" y2="248.4"/>
<line x1="902.7" y1="88.6" x2="907.0" y2="47.8"/>
<line x1="934.9" y1="119.7" x2="907.0" y2="47.8"/>
<line x1="972.6" y1="109.1" x2="1061.0" y2="149.1"/>
<line x1="934.9" y1="119.7" x2="1061.0" y2="149.1"/>
</g>
<g fill="#4C6478" opacity="0.5">
<circle cx="934.9" cy="119.7" r="2.2"/>
<circle cx="972.6" cy="109.1" r="2.1"/>
<circle cx="771.6" cy="248.4" r="3.1"/>
<circle cx="902.7" cy="88.6" r="3.0"/>
<circle cx="907.0" cy="47.8" r="2.2"/>
<circle cx="1061.0" cy="149.1" r="2.7"/>
</g>
<g stroke="#3A4C5E" stroke-width="1" opacity="0.22">
<line x1="1083.0" y1="310.7" x2="1177.9" y2="250.5"/>
<line x1="1083.0" y1="310.7" x2="1208.6" y2="238.6"/>
<line x1="1177.9" y1="250.5" x2="1208.6" y2="238.6"/>
<line x1="1177.9" y1="250.5" x2="1252.6" y2="307.1"/>
<line x1="1252.6" y1="307.1" x2="1313.1" y2="360.0"/>
<line x1="1252.6" y1="307.1" x2="1208.6" y2="238.6"/>
<line x1="1326.8" y1="208.4" x2="1208.6" y2="238.6"/>
<line x1="1252.6" y1="307.1" x2="1326.8" y2="208.4"/>
<line x1="1326.8" y1="208.4" x2="1313.1" y2="360.0"/>
</g>
<g fill="#3A4C5E" opacity="0.4">
<circle cx="1083.0" cy="310.7" r="1.7"/>
<circle cx="1177.9" cy="250.5" r="1.8"/>
<circle cx="1252.6" cy="307.1" r="2.5"/>
<circle cx="1326.8" cy="208.4" r="2.7"/>
<circle cx="1313.1" cy="360.0" r="2.2"/>
<circle cx="1208.6" cy="238.6" r="1.7"/>
</g>
<circle cx="310.5" cy="114.1" r="11.4" fill="none" stroke="#C9A227" stroke-width="1" opacity="0.5"/>
</svg>
